<svg width="112" height="107" viewBox="0 0 112 107" fill="none" xmlns="http://www.w3.org/2000/svg">
<path d="M14 35.6667L26.7021 45.7791C27.5407 46.4469 28.5978 46.8125 29.6896 46.8125H82.3102C83.4022 46.8125 84.4592 46.4469 85.2978 45.7791L98 35.6667M30.3333 62.4167H30.38M81.6667 62.4167H81.7133M38.083 20.0625H73.9172C77.2665 20.0625 80.3591 21.777 82.0204 24.5553L95.5407 47.1589C97.1521 49.8535 98 52.903 98 56.0069V82.4792C98 84.9415 95.9107 86.9375 93.3333 86.9375H88.6667C86.0893 86.9375 84 84.9415 84 82.4792V78.0208H28V82.4792C28 84.9415 25.9106 86.9375 23.3333 86.9375H18.6667C16.0894 86.9375 14 84.9415 14 82.4792V56.0069C14 52.903 14.8477 49.8535 16.4595 47.1589L29.9794 24.5553C31.6411 21.777 34.7337 20.0625 38.083 20.0625ZM32.6667 62.4167C32.6667 63.6476 31.622 64.6458 30.3333 64.6458C29.0447 64.6458 28 63.6476 28 62.4167C28 61.1857 29.0447 60.1875 30.3333 60.1875C31.622 60.1875 32.6667 61.1857 32.6667 62.4167ZM84 62.4167C84 63.6476 82.9551 64.6458 81.6667 64.6458C80.3782 64.6458 79.3333 63.6476 79.3333 62.4167C79.3333 61.1857 80.3782 60.1875 81.6667 60.1875C82.9551 60.1875 84 61.1857 84 62.4167Z" stroke="white" stroke-width="5.33333" stroke-linecap="round" stroke-linejoin="round"/>
</svg>
