<svg width="90" height="73" viewBox="0 0 90 73" fill="none" xmlns="http://www.w3.org/2000/svg">
<path d="M2.66678 18.2708L15.3688 28.3832C16.2075 29.051 17.2646 29.4166 18.3563 29.4166H70.977C72.069 29.4166 73.126 29.051 73.9646 28.3832L86.6668 18.2708M19.0001 45.0208H19.0468M70.3334 45.0208H70.3801M26.7498 2.66663H62.584C65.9332 2.66663 69.0258 4.38117 70.6872 7.15938L84.2074 29.763C85.8188 32.4577 86.6668 35.5072 86.6668 38.611V65.0833C86.6668 67.5456 84.5775 69.5416 82.0001 69.5416H77.3334C74.756 69.5416 72.6668 67.5456 72.6668 65.0833V60.625H16.6668V65.0833C16.6668 67.5456 14.5774 69.5416 12.0001 69.5416H7.33345C4.75614 69.5416 2.66678 67.5456 2.66678 65.0833V38.611C2.66678 35.5072 3.51453 32.4577 5.12625 29.763L18.6462 7.15938C20.3079 4.38117 23.4005 2.66663 26.7498 2.66663ZM21.3334 45.0208C21.3334 46.2517 20.2888 47.25 19.0001 47.25C17.7115 47.25 16.6668 46.2517 16.6668 45.0208C16.6668 43.7898 17.7115 42.7916 19.0001 42.7916C20.2888 42.7916 21.3334 43.7898 21.3334 45.0208ZM72.6668 45.0208C72.6668 46.2517 71.6219 47.25 70.3334 47.25C69.045 47.25 68.0001 46.2517 68.0001 45.0208C68.0001 43.7898 69.045 42.7916 70.3334 42.7916C71.6219 42.7916 72.6668 43.7898 72.6668 45.0208Z" stroke="white" stroke-width="5.33333" stroke-linecap="round" stroke-linejoin="round"/>
</svg>
