<svg width="64" height="56" viewBox="0 0 64 56" fill="none" xmlns="http://www.w3.org/2000/svg">
<path fill-rule="evenodd" clip-rule="evenodd" d="M19.8095 21C19.8095 13.268 25.2674 7 32 7C38.7325 7 44.1905 13.268 44.1905 21V24.5H47.2381C53.1291 24.5 57.9048 29.9845 57.9048 36.75C57.9048 43.5155 53.1291 49 47.2381 49H46.9333C45.2501 49 43.8857 50.567 43.8857 52.5C43.8857 54.433 45.2501 56 46.9333 56H47.2381C56.4955 56 64 47.3816 64 36.75C64 27.2276 57.9794 19.3199 50.0712 17.7738C48.7198 7.70746 41.1438 0 32 0C22.8563 0 15.2802 7.70746 13.9287 17.7738C6.0206 19.3199 0 27.2276 0 36.75C0 47.3816 7.50455 56 16.7619 56H17.0667C18.7498 56 20.1143 54.433 20.1143 52.5C20.1143 50.567 18.7498 49 17.0667 49H16.7619C10.8709 49 6.09524 43.5155 6.09524 36.75C6.09524 29.9845 10.8709 24.5 16.7619 24.5H19.8095V21ZM35.0476 24.5C35.0476 22.5669 33.6832 21 32 21C30.3168 21 28.9524 22.5669 28.9524 24.5V44.0503L25.0121 39.5252C23.822 38.1584 21.8923 38.1584 20.7021 39.5252C19.512 40.8919 19.512 43.1081 20.7021 44.4748L29.845 54.9748C31.0351 56.3416 32.9649 56.3416 34.155 54.9748L43.2978 44.4748C44.4879 43.1081 44.4879 40.8919 43.2978 39.5252C42.1077 38.1584 40.178 38.1584 38.9879 39.5252L35.0476 44.0503V24.5Z" fill="black"/>
</svg>
