<svg width="26" height="23" viewBox="0 0 26 23" fill="none" xmlns="http://www.w3.org/2000/svg">
<g clip-path="url(#clip0_6_87)">
<path d="M13 0C5.81999 0 0 5.14845 0 11.5C0 17.8515 5.81999 23 13 23C20.18 23 26 17.8515 26 11.5C26 5.14845 20.18 0 13 0ZM13 21.2031C6.94195 21.2031 2.03125 16.859 2.03125 11.5C2.03125 6.14095 6.94195 1.79688 13 1.79688C19.0581 1.79688 23.9688 6.14095 23.9688 11.5C23.9688 16.859 19.0581 21.2031 13 21.2031Z" fill="white" stroke="white" stroke-width="0.125"/>
<path d="M16.6118 17.2486C16.9014 17.2493 19.5 15.5493 19.5 15.3324C19.5 15.1155 16.592 13.4948 16.3404 13.4948C16.0889 13.4948 15.2447 14.3905 15.017 14.4901C14.7885 14.5898 13.3666 14.554 11.7821 13.1523C10.1967 11.7513 9.6556 10.1377 9.6556 9.88425C9.6556 9.63085 10.9775 8.84826 11.014 8.66435C11.0505 8.48044 9.27154 5.75 8.98275 5.75C8.69395 5.75 6.5 8.1084 6.5 8.30493C6.5 8.50147 6.70074 11.0297 10.3197 14.2304C13.9387 17.4311 16.3222 17.2472 16.6118 17.2486Z" fill="white" stroke="white" stroke-width="0.125"/>
</g>
<defs>
<clipPath id="clip0_6_87">
<rect width="26" height="23" fill="white"/>
</clipPath>
</defs>
</svg>
