<svg width="40" height="40" viewBox="0 0 40 40" fill="none" xmlns="http://www.w3.org/2000/svg">
<g clip-path="url(#clip0_25_24)">
<path d="M20 0C8.95383 0 0 8.95383 0 20C0 31.0462 8.95383 40 20 40C31.0462 40 40 31.0462 40 20C40 8.95383 31.0462 0 20 0ZM20 36.875C10.6799 36.875 3.125 29.3201 3.125 20C3.125 10.6799 10.6799 3.125 20 3.125C29.3201 3.125 36.875 10.6799 36.875 20C36.875 29.3201 29.3201 36.875 20 36.875Z" fill="white" stroke="white" stroke-width="0.125"/>
<path d="M25.5566 29.9976C26.0022 29.9988 30 27.0423 30 26.6651C30 26.2879 25.5261 23.4693 25.1391 23.4693C24.7522 23.4693 23.4534 25.027 23.103 25.2002C22.7515 25.3736 20.564 25.3113 18.1263 22.8736C15.6873 20.437 14.8548 17.6307 14.8548 17.19C14.8548 16.7493 16.8884 15.3883 16.9446 15.0684C17.0008 14.7486 14.2639 10 13.8196 10C13.3753 10 10 14.1016 10 14.4434C10 14.7852 10.3088 19.1821 15.8765 24.7485C21.4441 30.3149 25.1111 29.9952 25.5566 29.9976Z" fill="white" stroke="white" stroke-width="0.125"/>
</g>
<defs>
<clipPath id="clip0_25_24">
<rect width="40" height="40" fill="white"/>
</clipPath>
</defs>
</svg>
